# xmcd
#
# Track frame offsets:
#	150
#	9150
#	21083
#	31938
#	52085
#	70794
#
# Disc length: 1135 seconds
#
# Revision: 0
# Processed by: cddbd v1.5.2PL0 Copyright (c) Steve Scherf et al.
# Submitted via: dBpowerAMP V4.0
#
DISCID=40046d06
DTITLE=Hurley and The Blue Dots - Hurley and The Blue Dots
DYEAR=1900
DGENRE=Blues
TTITLE0=Ain't No Big Deal On You
TTITLE1=Evil
TTITLE2=Diddy Wah Diddy
TTITLE3=Love In Vain
TTITLE4=Goo Goo Muck
TTITLE5=Sugar Sweet
EXTD=
EXTT0=
EXTT1=
EXTT2=
EXTT3=
EXTT4=
EXTT5=
PLAYORDER=
